<svg width="4200" height="4200" viewBox="0 0 4200 4200" fill="none" xmlns="http://www.w3.org/2000/svg">
<path d="M4129.33 2047.9C4167.98 2046.91 4198.63 2014.75 4196.35 1976.16C4169.13 1515.27 3990.73 1076.11 3688.82 726.806C3663.54 697.557 3619.15 695.882 3590.76 722.122L2999.59 1268.52C2971.2 1294.76 2969.65 1338.93 2994.12 1368.85C3141.24 1548.76 3230.68 1768.94 3250.71 2000.47C3254.04 2038.99 3285.95 2069.55 3324.6 2068.56L4129.33 2047.9Z" fill="url(#paint0_radial_18_265)"/>
<path d="M3353.69 3696.61C3377.57 3727.01 3421.66 3732.4 3451.25 3707.52C3666.24 3526.8 3842.99 3304.63 3970.8 3054C4098.6 2803.38 4174.64 2529.84 4194.66 2249.7C4197.41 2211.14 4167.17 2178.61 4128.53 2177.14L3324.12 2146.55C3285.48 2145.08 3253.19 2175.25 3249.39 2213.72C3235.23 2356.82 3194.45 2496.23 3128.94 2624.7C3063.43 2753.17 2974.53 2868.05 2867.02 2963.54C2838.12 2989.22 2832.66 3033.06 2856.54 3063.47L3353.69 3696.61Z" fill="url(#paint1_radial_18_265)"/>
<path d="M1586.2 4063.9C1576.42 4101.3 1598.78 4139.68 1636.49 4148.21C1910.42 4210.2 2194.25 4216.66 2471.16 4166.94C2748.06 4117.22 3011.91 4012.41 3247.16 3858.98C3279.54 3837.87 3287.16 3794.11 3264.97 3762.45L2803 3103.2C2780.82 3071.54 2737.27 3064.06 2704.32 3084.29C2581.78 3159.53 2446.07 3211.33 2304.14 3236.82C2162.2 3262.3 2016.95 3260.95 1875.88 3233.05C1837.96 3225.55 1799.73 3247.71 1789.95 3285.11L1586.2 4063.9Z" fill="url(#paint2_radial_18_265)"/>
<path d="M235.55 2902.95C200.043 2918.24 183.548 2959.48 200.014 2994.46C319.64 3248.57 489.136 3476.32 698.669 3664.06C908.201 3851.79 1153.14 3995.35 1418.81 4086.45C1455.38 4098.99 1494.56 4078.08 1505.88 4041.11L1741.48 3271.36C1752.79 3234.39 1731.9 3195.46 1695.69 3181.92C1560.99 3131.59 1436.67 3056.46 1329.27 2960.23C1221.86 2864 1133.58 2748.65 1068.81 2620.27C1051.4 2585.75 1010.41 2569.25 974.901 2584.54L235.55 2902.95Z" fill="url(#paint3_radial_18_265)"/>
<path d="M318.088 1127.53C284.153 1109.01 241.517 1121.46 224.139 1156C97.8852 1406.88 23.1303 1680.76 4.57337 1961.48C-13.9836 2242.2 24.0679 2523.54 116.198 2788.86C128.88 2825.38 169.506 2843.33 205.584 2829.44L956.818 2540.18C992.896 2526.29 1010.66 2485.83 998.983 2448.98C955.535 2311.9 938.003 2167.71 947.515 2023.82C957.027 1879.92 993.387 1739.29 1054.5 1609.12C1070.93 1574.13 1058.64 1531.69 1024.71 1513.17L318.088 1127.53Z" fill="url(#paint4_radial_18_265)"/>
<path d="M1795.31 92.9967C1789.5 54.7747 1753.79 28.3749 1715.78 35.4481C1439.66 86.834 1176.41 193.137 941.739 348.306C707.069 503.475 506.171 704.08 350.767 938.026C329.376 970.228 339.681 1013.43 372.578 1033.74L1057.59 1456.57C1090.49 1476.87 1133.45 1466.52 1155.71 1434.92C1238.51 1317.35 1342.67 1216.11 1462.96 1136.57C1583.25 1057.03 1717.19 1000.84 1857.79 970.681C1895.59 962.574 1921.94 927.099 1916.13 888.877L1795.31 92.9967Z" fill="url(#paint5_radial_18_265)"/>
<path d="M3535.43 664.573C3562.76 637.236 3562.84 592.821 3534.61 566.41C3329.5 374.542 3087.81 225.597 2823.71 128.644C2559.61 31.6903 2278.95 -11.1276 1998.42 2.4579C1959.81 4.32793 1931.13 38.2441 1934.29 76.775L2000 879.088C2003.16 917.619 2036.96 946.074 2075.61 945.257C2219.38 942.221 2362.67 966.057 2498.04 1015.75C2633.41 1065.45 2758.09 1139.99 2865.74 1235.32C2894.68 1260.95 2938.87 1261.13 2966.21 1233.79L3535.43 664.573Z" fill="url(#paint6_radial_18_265)"/>
<defs>
<radialGradient id="paint0_radial_18_265" cx="0" cy="0" r="1" gradientUnits="userSpaceOnUse" gradientTransform="translate(2100 2100) rotate(90) scale(2100)">
<stop stop-color="#56817C"/>
<stop offset="1" stop-color="#1A2423" stop-opacity="0"/>
</radialGradient>
<radialGradient id="paint1_radial_18_265" cx="0" cy="0" r="1" gradientUnits="userSpaceOnUse" gradientTransform="translate(2100 2100) rotate(90) scale(2100)">
<stop stop-color="#56817C"/>
<stop offset="1" stop-color="#1A2423" stop-opacity="0"/>
</radialGradient>
<radialGradient id="paint2_radial_18_265" cx="0" cy="0" r="1" gradientUnits="userSpaceOnUse" gradientTransform="translate(2100 2100) rotate(90) scale(2100)">
<stop stop-color="#56817C"/>
<stop offset="1" stop-color="#1A2423" stop-opacity="0"/>
</radialGradient>
<radialGradient id="paint3_radial_18_265" cx="0" cy="0" r="1" gradientUnits="userSpaceOnUse" gradientTransform="translate(2100 2100) rotate(90) scale(2100)">
<stop stop-color="#56817C"/>
<stop offset="1" stop-color="#1A2423" stop-opacity="0"/>
</radialGradient>
<radialGradient id="paint4_radial_18_265" cx="0" cy="0" r="1" gradientUnits="userSpaceOnUse" gradientTransform="translate(2100 2100) rotate(90) scale(2100)">
<stop stop-color="#56817C"/>
<stop offset="1" stop-color="#1A2423" stop-opacity="0"/>
</radialGradient>
<radialGradient id="paint5_radial_18_265" cx="0" cy="0" r="1" gradientUnits="userSpaceOnUse" gradientTransform="translate(2100 2100) rotate(90) scale(2100)">
<stop stop-color="#56817C"/>
<stop offset="1" stop-color="#1A2423" stop-opacity="0"/>
</radialGradient>
<radialGradient id="paint6_radial_18_265" cx="0" cy="0" r="1" gradientUnits="userSpaceOnUse" gradientTransform="translate(2100 2100) rotate(90) scale(2100)">
<stop stop-color="#56817C"/>
<stop offset="1" stop-color="#1A2423" stop-opacity="0"/>
</radialGradient>
</defs>
</svg>
